# Blender 4.2.17 LTS
# www.blender.org
mtllib lab312.mtl
g c_Cube
v 1.000000 0.042843 -1.000000
v 1.000000 -1.000000 -1.000000
v 1.000000 0.042843 1.000000
v 1.000000 -1.000000 1.000000
v -1.000000 0.042843 -1.000000
v -1.000000 -1.000000 -1.000000
v -1.000000 0.042843 1.000000
v -1.000000 -1.000000 1.000000
v 6.794303 -0.313975 -5.007448
vn -0.0000 1.0000 -0.0000
vn -0.0000 -0.0000 1.0000
vn -1.0000 -0.0000 -0.0000
vn -0.0000 -1.0000 -0.0000
vn 1.0000 -0.0000 -0.0000
vn -0.0000 -0.0000 -1.0000
vt 0.505355 0.500000
vt 0.875000 0.500000
vt 0.875000 0.750000
vt 0.505355 0.750000
vt 0.375000 0.750000
vt 0.505355 1.000000
vt 0.375000 1.000000
vt 0.375000 0.000000
vt 0.505355 0.000000
vt 0.505355 0.250000
vt 0.375000 0.250000
vt 0.125000 0.500000
vt 0.375000 0.500000
vt 0.125000 0.750000
s 0
usemtl Material
f 1/1/1 5/2/1 7/3/1 3/4/1
f 4/5/2 3/4/2 7/6/2 8/7/2
f 8/8/3 7/9/3 5/10/3 6/11/3
f 6/12/4 2/13/4 4/5/4 8/14/4
f 2/13/5 1/1/5 3/4/5 4/5/5
f 6/11/6 5/10/6 1/1/6 2/13/6
g b_Cube.001
v -0.961857 0.788953 0.996675
v -0.961857 0.057364 0.996675
v 0.973219 0.791853 0.986788
v 0.973219 0.054465 0.986788
v -0.995644 0.788953 -1.602215
v -0.995644 0.057364 -1.602215
v 0.939164 0.791853 -1.632702
v 0.939164 0.054465 -1.632702
vn 0.0051 -0.0000 1.0000
vn 0.9999 -0.0000 -0.0130
vn -0.0158 -0.0000 -0.9999
vn -0.9999 -0.0000 0.0130
vn -0.0015 1.0000 -0.0000
vn -0.0015 -1.0000 -0.0000
vt 0.375983 0.045715
vt 0.624017 0.045715
vt 0.625000 0.250000
vt 0.375000 0.250000
vt 0.665567 0.459229
vt 0.334434 0.459229
vt 0.664787 0.752865
vt 0.335212 0.752865
vt 0.624017 0.998837
vt 0.375983 0.998837
vt 0.125000 0.500000
vt 0.125983 0.704284
vt 0.875000 0.500000
vt 0.874017 0.704285
s 0
usemtl Material
f 10/15/7 11/16/7 13/17/7 12/18/7
f 12/18/8 13/17/8 17/19/8 16/20/8
f 16/20/9 17/19/9 15/21/9 14/22/9
f 14/22/10 15/21/10 11/23/10 10/24/10
f 12/25/11 16/20/11 14/22/11 10/26/11
f 17/19/12 13/27/12 11/28/12 15/21/12
g d_Cube.002
v 0.340066 0.139859 -3.698446
v -0.293707 0.139859 -3.698446
v 0.340066 0.130441 -1.624197
v -0.293707 0.130441 -1.624197
v 0.340066 0.790684 -3.695491
v -0.293707 0.790684 -3.695491
v 0.340066 0.781266 -1.621243
v -0.293707 0.781266 -1.621243
vn -0.0000 -0.0045 1.0000
vn 1.0000 -0.0000 -0.0000
vn -0.0000 -1.0000 -0.0045
vn -0.0000 1.0000 0.0045
vn -0.0000 0.0045 -1.0000
vn -1.0000 -0.0000 -0.0000
vt 0.450944 0.000000
vt 0.567256 0.000000
vt 0.567256 0.250000
vt 0.450944 0.250000
vt 0.375000 0.250000
vt 0.567016 0.250000
vt 0.567016 0.500000
vt 0.375000 0.500000
vt 0.375000 0.575944
vt 0.567016 0.575944
vt 0.567016 0.692256
vt 0.375000 0.692256
vt 0.375000 0.807744
vt 0.567016 0.807744
vt 0.567016 0.924056
vt 0.375000 0.924056
vt 0.182744 0.500000
vt 0.299056 0.500000
vt 0.299056 0.750000
vt 0.182744 0.750000
vt 0.625000 0.500000
vt 0.817016 0.500000
vt 0.817016 0.750000
vt 0.625000 0.750000
s 0
usemtl Material
f 21/29/13 20/30/13 24/31/13 25/32/13
f 20/33/14 18/34/14 22/35/14 24/36/14
f 21/37/15 19/38/15 18/39/15 20/40/15
f 24/41/16 22/42/16 23/43/16 25/44/16
f 18/45/17 19/46/17 23/47/17 22/48/17
f 25/49/18 23/50/18 19/51/18 21/52/18
g a_Cube.006
v 0.347407 -1.853839 -3.014473
v -0.286366 -1.853839 -3.014473
v 0.347407 0.220398 -3.002883
v -0.286366 0.220398 -3.002883
v 0.347407 -1.850202 -3.665295
v -0.286366 -1.850202 -3.665295
v 0.347407 0.224035 -3.653705
v -0.286366 0.224035 -3.653705
vn -0.0000 1.0000 0.0056
vn 1.0000 -0.0000 -0.0000
vn -0.0000 -0.0056 1.0000
vn -0.0000 0.0056 -1.0000
vn -0.0000 -1.0000 -0.0056
vn -1.0000 -0.0000 -0.0000
vt 0.450944 0.000000
vt 0.567256 0.000000
vt 0.567256 0.250000
vt 0.450944 0.250000
vt 0.375000 0.250000
vt 0.567016 0.250000
vt 0.567016 0.500000
vt 0.375000 0.500000
vt 0.375000 0.575944
vt 0.567016 0.575944
vt 0.567016 0.692256
vt 0.375000 0.692256
vt 0.375000 0.807744
vt 0.567016 0.807744
vt 0.567016 0.924056
vt 0.375000 0.924056
vt 0.182744 0.500000
vt 0.299056 0.500000
vt 0.299056 0.750000
vt 0.182744 0.750000
vt 0.625000 0.500000
vt 0.817016 0.500000
vt 0.817016 0.750000
vt 0.625000 0.750000
s 0
usemtl Material.001
f 29/53/19 28/54/19 32/55/19 33/56/19
f 28/57/20 26/58/20 30/59/20 32/60/20
f 29/61/21 27/62/21 26/63/21 28/64/21
f 32/65/22 30/66/22 31/67/22 33/68/22
f 26/69/23 27/70/23 31/71/23 30/72/23
f 33/73/24 31/74/24 27/75/24 29/76/24
